<svg width="17" height="32" viewBox="0 0 17 32" fill="none" xmlns="http://www.w3.org/2000/svg">
<path d="M1.72414 0.310345C1.34325 -0.0895855 0.710275 -0.105024 0.310345 0.275862C-0.0895855 0.656748 -0.105024 1.28972 0.275862 1.68966L1.72414 0.310345ZM15 15.7L15.7241 16.3897L16.381 15.7L15.7241 15.0103L15 15.7ZM0.275862 29.7103C-0.105024 30.1103 -0.0895855 30.7433 0.310345 31.1241C0.710275 31.505 1.34325 31.4896 1.72414 31.0897L0.275862 29.7103ZM0.275862 1.68966L14.2759 16.3897L15.7241 15.0103L1.72414 0.310345L0.275862 1.68966ZM14.2759 15.0103L0.275862 29.7103L1.72414 31.0897L15.7241 16.3897L14.2759 15.0103Z" fill="#B2B2B2"/>
</svg>
