<svg width="50" height="50" viewBox="0 0 50 50" fill="none" xmlns="http://www.w3.org/2000/svg">
<rect x="0.5" y="0.5" width="49" height="49" rx="3.5" fill="white" stroke="#E9E9E9"/>
<path fill-rule="evenodd" clip-rule="evenodd" d="M9 32C9 33.6569 10.3431 35 12 35L31 35L31 15L12 15C10.3431 15 9 16.3431 9 18L9 32ZM33 15L33 35L38 35C39.6569 35 41 33.6569 41 32L41 27.8293C39.8348 27.4175 39 26.3062 39 25C39 23.6938 39.8348 22.5825 41 22.1707L41 18C41 16.3431 39.6569 15 38 15L33 15Z" fill="#333333"/>
</svg>
