<svg width="8" height="12" viewBox="0 0 8 12" fill="none" xmlns="http://www.w3.org/2000/svg">
<path d="M1.70711 0.292893C1.31658 -0.0976313 0.683418 -0.0976313 0.292893 0.292893C-0.0976305 0.683417 -0.097631 1.31658 0.292893 1.70711L1.70711 0.292893ZM6 6L6.70711 6.70711L7.41421 6L6.70711 5.29289L6 6ZM0.292893 10.2929C-0.0976314 10.6834 -0.097631 11.3166 0.292893 11.7071C0.683417 12.0976 1.31658 12.0976 1.70711 11.7071L0.292893 10.2929ZM0.292893 1.70711L5.29289 6.70711L6.70711 5.29289L1.70711 0.292893L0.292893 1.70711ZM5.29289 5.29289L0.292893 10.2929L1.70711 11.7071L6.70711 6.70711L5.29289 5.29289Z" fill="#333333"/>
</svg>
