<svg width="20" height="20" viewBox="0 0 20 20" fill="none" xmlns="http://www.w3.org/2000/svg">
<path d="M12.8562 0.0966538C13.6964 -0.173981 14.6087 0.205478 15.0092 0.992105L16.1003 3.13551C16.2719 3.4726 16.5455 3.74696 16.8821 3.91954L19.0224 5.01691C19.8078 5.41963 20.1846 6.33309 19.9116 7.17248L19.1675 9.45967C19.0505 9.81937 19.0499 10.2068 19.1659 10.5669L19.9033 12.8562C20.174 13.6964 19.7945 14.6087 19.0079 15.0092L16.8645 16.1003C16.5274 16.2719 16.253 16.5455 16.0805 16.8821L14.9831 19.0224C14.5804 19.8078 13.6669 20.1846 12.8275 19.9116L10.5403 19.1675C10.1806 19.0505 9.79318 19.0499 9.43314 19.1659L7.14381 19.9033C6.30363 20.174 5.39127 19.7945 4.99082 19.0079L3.89965 16.8645C3.72805 16.5274 3.45448 16.253 3.11789 16.0805L0.977648 14.9831C0.192182 14.5804 -0.184635 13.6669 0.0884306 12.8275L0.832481 10.5403C0.949495 10.1806 0.950056 9.79318 0.834082 9.43314L0.0966539 7.14381C-0.173981 6.30363 0.205478 5.39127 0.992105 4.99082L3.13551 3.89965C3.4726 3.72805 3.74696 3.45448 3.91954 3.11789L5.01691 0.977647C5.41964 0.192182 6.33309 -0.184634 7.17248 0.0884306L9.45967 0.832481C9.81937 0.949495 10.2068 0.950055 10.5669 0.834082L12.8562 0.0966538Z" fill="#830890"/>
<path d="M13.0556 6.88184L6.88184 13.0556" stroke="white" stroke-width="1.3" stroke-linecap="round"/>
<circle cx="7.76394" cy="7.76394" r="1.26394" stroke="white"/>
<circle cx="12.1741" cy="12.1741" r="1.26394" stroke="white"/>
</svg>
