<svg width="10" height="10" viewBox="0 0 10 10" fill="none" xmlns="http://www.w3.org/2000/svg">
<path d="M3.84387 0.137024C3.64341 -0.0528918 3.32694 -0.0443386 3.13702 0.156128C2.94711 0.356594 2.95566 0.673061 3.15613 0.862976L3.84387 0.137024ZM8.25 5L8.59387 5.36298L8.97701 5L8.59387 4.63702L8.25 5ZM3.15613 9.13702C2.95566 9.32694 2.94711 9.64341 3.13702 9.84387C3.32694 10.0443 3.64341 10.0529 3.84387 9.86298L3.15613 9.13702ZM3.15613 0.862976L7.90613 5.36298L8.59387 4.63702L3.84387 0.137024L3.15613 0.862976ZM7.90613 4.63702L3.15613 9.13702L3.84387 9.86298L8.59387 5.36298L7.90613 4.63702Z" fill="#707070"/>
</svg>
