<svg width="40" height="40" viewBox="0 0 40 40" fill="none" xmlns="http://www.w3.org/2000/svg">
<path d="M1 35C1 35.2761 1.22386 35.5 1.5 35.5C1.77614 35.5 2 35.2761 2 35H1ZM38 35C38 35.2761 38.2239 35.5 38.5 35.5C38.7761 35.5 39 35.2761 39 35H38ZM37.9055 21.3538L38.3758 21.184L37.9055 21.3538ZM32.7154 6.98107L32.2451 7.15089L32.7154 6.98107ZM2.01317 21.4605L1.53883 21.3024L2.01317 21.4605ZM2 35V24.6228H1V35H2ZM2.48751 21.6186L7.29057 7.20943L6.34189 6.8932L1.53883 21.3024L2.48751 21.6186ZM9.66228 5.5H29.8937V4.5H9.66228V5.5ZM32.2451 7.15089L37.4353 21.5236L38.3758 21.184L33.1857 6.81124L32.2451 7.15089ZM38 24.7502V35H39V24.7502H38ZM37.4353 21.5236C37.8089 22.5583 38 23.6501 38 24.7502H39C39 23.5343 38.7888 22.3276 38.3758 21.184L37.4353 21.5236ZM29.8937 5.5C30.947 5.5 31.8874 6.16019 32.2451 7.15089L33.1857 6.81124C32.6848 5.42427 31.3684 4.5 29.8937 4.5V5.5ZM7.29057 7.20943C7.63086 6.18857 8.5862 5.5 9.66228 5.5V4.5C8.15577 4.5 6.81829 5.464 6.34189 6.8932L7.29057 7.20943ZM2 24.6228C2 23.6017 2.16461 22.5873 2.48751 21.6186L1.53883 21.3024C1.18194 22.373 1 23.4942 1 24.6228H2Z" fill="black"/>
<path d="M0.5 16.5L3.57895 18H36.4211L39.5 16.5" stroke="black" stroke-linecap="round"/>
<path d="M16.5 28H23" stroke="black" stroke-linecap="round"/>
<path d="M9.60957 34.6877C9.43706 34.9033 9.47202 35.2179 9.68765 35.3904C9.90328 35.5629 10.2179 35.528 10.3904 35.3123L9.60957 34.6877ZM29.6096 35.3123C29.7821 35.528 30.0967 35.5629 30.3123 35.3904C30.528 35.2179 30.5629 34.9033 30.3904 34.6877L29.6096 35.3123ZM10.3904 35.3123L11.1895 34.3136L10.4086 33.6889L9.60957 34.6877L10.3904 35.3123ZM13.9225 33H26.0775V32H13.9225V33ZM28.8105 34.3136L29.6096 35.3123L30.3904 34.6877L29.5914 33.6889L28.8105 34.3136ZM26.0775 33C27.1407 33 28.1463 33.4833 28.8105 34.3136L29.5914 33.6889C28.7374 32.6214 27.4445 32 26.0775 32V33ZM11.1895 34.3136C11.8537 33.4833 12.8593 33 13.9225 33V32C12.5555 32 11.2626 32.6214 10.4086 33.6889L11.1895 34.3136Z" fill="black"/>
<circle cx="7.5" cy="27" r="2.5" stroke="black"/>
<circle cx="32.5" cy="27" r="2.5" stroke="black"/>
</svg>
